<svg width="32" height="32" viewBox="0 0 32 32" fill="light" xmlns="http://www.w3.org/2000/svg">
<path d="M13 29V21.9893C13 21.5 13.5 21 14 21H18C18.5 21 19 21.5 19 22V29C19 29.5523 19.4477 30 20 30H28C28.5523 30 29 29.5523 29 29V15C29 14.7348 28.8946 14.4804 28.7071 14.2929L26 11.5858V5C26 4.44772 25.5523 4 25 4H23C22.4477 4 22 4.44772 22 5V7.58579L16.7071 2.29289C16.3166 1.90237 15.6834 1.90237 15.2929 2.29289L3.29289 14.2929C3.10536 14.4804 3 14.7348 3 15V29C3 29.5523 3.44772 30 4 30H12C12.5523 30 13 29.5523 13 29Z" fill="#F2F2F2"/>
</svg>
