<svg width="246" height="246" viewBox="0 0 246 246" fill="none" xmlns="http://www.w3.org/2000/svg">
<path d="M246 123C246 155.622 233.041 186.907 209.974 209.974C186.907 233.041 155.622 246 123 246C90.3784 246 59.0928 233.041 36.0259 209.974C12.9589 186.907 0 155.622 0 123C0 90.3784 12.9589 59.0928 36.0259 36.0259C59.0928 12.9589 90.3784 0 123 0C155.622 0 186.907 12.9589 209.974 36.0259C233.041 59.0928 246 90.3784 246 123ZM184.961 76.4137C183.863 75.3193 182.555 74.4576 181.116 73.8802C179.678 73.3027 178.137 73.0214 176.587 73.053C175.037 73.0845 173.509 73.4284 172.095 74.064C170.68 74.6995 169.409 75.6138 168.356 76.752L114.959 144.786L82.779 112.591C80.5931 110.554 77.7018 109.445 74.7145 109.498C71.7271 109.551 68.8768 110.761 66.7641 112.874C64.6513 114.986 63.4411 117.837 63.3884 120.824C63.3357 123.811 64.4446 126.703 66.4815 128.889L107.164 169.586C108.26 170.68 109.565 171.542 111.001 172.121C112.437 172.7 113.976 172.983 115.524 172.954C117.072 172.926 118.599 172.585 120.013 171.954C121.426 171.322 122.699 170.413 123.753 169.279L185.13 92.5575C187.223 90.3819 188.379 87.4726 188.35 84.4542C188.321 81.4359 187.11 78.5491 184.977 76.4137H184.961Z" fill="#6CFF39"/>
<path d="M166.783 75.5172L114.779 141.777L84.1936 111.177L84.1684 111.152L84.1424 111.128C81.5774 108.738 78.1847 107.437 74.6792 107.498C71.1737 107.56 67.829 108.98 65.3498 111.459C62.8707 113.939 61.4506 117.283 61.3887 120.789C61.3269 124.294 62.6281 127.687 65.0183 130.252L65.0422 130.278L65.067 130.303L105.749 171L105.751 171.002C107.037 172.285 108.568 173.297 110.254 173.976L111.001 172.121L110.254 173.976C111.939 174.655 113.744 174.988 115.561 174.954L115.524 172.954L115.561 174.954C117.378 174.92 119.169 174.521 120.828 173.78C122.487 173.039 123.98 171.971 125.218 170.641L125.269 170.586L125.315 170.528L186.637 93.8753C189.051 91.33 190.383 87.9455 190.35 84.4352C190.316 80.8933 188.895 77.5058 186.391 75.0001L185.806 74.4137H185.749C184.6 73.4042 183.285 72.5955 181.861 72.0241C180.173 71.3465 178.365 71.0163 176.546 71.0534C174.727 71.0904 172.934 71.4939 171.275 72.2397C169.615 72.9855 168.123 74.0583 166.888 75.394L166.833 75.4535L166.783 75.5172ZM244 123C244 155.091 231.252 185.868 208.56 208.56C185.868 231.252 155.091 244 123 244C90.9088 244 60.132 231.252 37.4401 208.56C14.7482 185.868 2 155.091 2 123C2 90.9088 14.7482 60.132 37.4401 37.4401C60.132 14.7482 90.9088 2 123 2C155.091 2 185.868 14.7482 208.56 37.4401C231.252 60.132 244 90.9088 244 123Z" stroke="black" stroke-opacity="0.25" stroke-width="4"/>
</svg>
